<?xml version="1.0" encoding="UTF-8" standalone="no"?>
<svg
   xmlns:dc="http://purl.org/dc/elements/1.1/"
   xmlns:cc="http://creativecommons.org/ns#"
   xmlns:rdf="http://www.w3.org/1999/02/22-rdf-syntax-ns#"
   xmlns:svg="http://www.w3.org/2000/svg"
   xmlns="http://www.w3.org/2000/svg"
   xmlns:sodipodi="http://sodipodi.sourceforge.net/DTD/sodipodi-0.dtd"
   xmlns:inkscape="http://www.inkscape.org/namespaces/inkscape"
   width="41.6667in"
   height="48in"
   viewBox="0 0 3000 3456"
   version="1.1"
   id="svg3"
   sodipodi:docname="logo.svg"
   inkscape:version="0.92.5 (2060ec1f9f, 2020-04-08)">
  <metadata
     id="metadata9">
    <rdf:RDF>
      <cc:Work
         rdf:about="">
        <dc:format>image/svg+xml</dc:format>
        <dc:type
           rdf:resource="http://purl.org/dc/dcmitype/StillImage" />
      </cc:Work>
    </rdf:RDF>
  </metadata>
  <defs
     id="defs7" />
  <sodipodi:namedview
     pagecolor="#ffffff"
     bordercolor="#666666"
     borderopacity="1"
     objecttolerance="10"
     gridtolerance="10"
     guidetolerance="10"
     inkscape:pageopacity="0"
     inkscape:pageshadow="2"
     inkscape:window-width="1246"
     inkscape:window-height="696"
     id="namedview5"
     showgrid="false"
     inkscape:snap-nodes="false"
     inkscape:zoom="0.07242934"
     inkscape:cx="3334.751"
     inkscape:cy="3063.6367"
     inkscape:window-x="0"
     inkscape:window-y="0"
     inkscape:window-maximized="1"
     inkscape:current-layer="svg3" />
  <path
     style="fill:#007eff;fill-opacity:1;stroke:#000000;stroke-width:1"
     d="M 62.383603,2525.5428 C 87.702126,2466.6653 164.44981,2520.15 211.74445,2527.4479 402.03325,2588.4326 591.63015,2652.9396 783,2711 c 4.8137,-64.2634 14.76309,-127.6311 19,-192 -98.76867,-30.0438 -201.07717,-54.1422 -295,-96.27 -106.23359,-87.1015 43.65548,-189.1097 130.15864,-121.9128 60.78038,16.9714 120.03392,38.3104 180.84136,55.1828 33.04358,-349.2904 69.87529,-696.7846 97.86,-1046 18.48625,-80.0329 -89.91816,-209.5398 56.07026,-217.91 102.01564,-16.312 91.23144,135.4404 180.50674,100.22 104.6395,-12.1402 210.1575,-17.0994 314.563,-31.31 7.8724,-79.2321 0.6004,-161.34588 22,-238 -73.8267,-35.34036 -122.3438,-102.26812 -151.27,-177 -67.0899,-79.27887 -89.624,-193.97181 -77.67,-294 70.4235,-115.41003 166.4136,9.60042 161.3521,98.30827 6.2491,75.12397 71.2787,122.51203 99.5879,187.69173 45.5731,33.21737 107.2156,-12.78754 150.5851,-35.95927 C 1745.7881,649.54529 1756.2048,556.61138 1781.47,477 1857.1854,375.77648 1957.6644,498.65883 1915.4388,586.3045 1886.8955,741.65448 1758.6936,869.99905 1604,902 c 50.392,59.6833 16.8316,143.8459 21.0255,215.8968 7.5657,49.1951 104.131,6.5886 155.9745,10.1032 96.4891,-10.9968 192.6122,-21.4316 289,-31.7 53.5257,-101.9506 265.2554,-117.90817 198.23,38.7 -36.4563,58.6258 -13.5784,134.7494 -26.23,201 -14.5605,435.0344 -36.6266,870.6105 -45.6846,1305.8462 24.879,53.3785 60.7423,135.1222 93.7224,177.5295 97.4478,30.454 195.3227,59.3941 291.9622,90.0743 92.2558,44.9227 172.4324,-44.8359 248,-76.45 137.0591,5.8254 74.9115,166.0516 -15,199.36 -119.8847,74.1512 -274.8787,63.5842 -395.8196,-1.3021 C 2317.1112,3003.1517 2218.4741,2959.0257 2115,2940 c -68.25,12.7868 -108.4514,-48.5609 -170,-58 -82.3692,17.3212 -130.7507,-59.349 -210,-67.15 -167.4984,-54.7588 -334.5631,-110.0347 -502.79,-160.74 -31.0493,55.9368 -60.7678,112.5886 -89.21,169.89 254.336,83.1495 508.3653,166.1151 764.8358,243.6229 131.1656,49.8646 275.3417,50.6867 405.1642,102.8671 76.7049,34.0604 155.32,-21.3435 212.5112,-69.4863 152.9021,-33.8954 119.2418,156.384 14.8038,192.4963 -125.603,84.8489 -285.4894,53.9353 -415.315,-2.29 -323.1833,-75.7819 -636.419,-189.0708 -954,-283.91 -81.3629,-26.9366 -162.8766,-52.4166 -245,-76.3 -30.76556,105.6696 -172.19379,216.6315 -267.38375,112.7838 C 553.02772,2988.3635 702.25239,2845.9165 616,2829.22 432.97207,2774.137 253.17865,2711.5855 71,2654 50.947216,2613.6548 64.565804,2568.5271 62.383603,2525.5428 Z M 1666,221.29 c 72.7756,6.17319 199.4371,-12.94077 194,95.71 -13.5138,90.49757 -125.8647,77.73138 -192,60.64 -77.9674,-20.56677 -88.9705,-141.0847 -2,-156.35 z m -211,3.81 c 119.9451,-35.322 160.8971,175.63762 21.5769,162.74231 C 1411.7699,397.17916 1303.0977,391.79932 1310,302 c 6.0315,-80.39113 88.9038,-70.36804 145,-76.9 z M 1616,1305 c -13.7167,208.7417 -19.9473,418.0383 -38.67,626 98.4419,216.109 195.8758,433.1416 297.9093,647.8563 35.0014,46.7594 32.4303,131.0586 99.7607,140.4737 72.2587,20.0792 55.0684,-75.008 59.6608,-120.7661 11.8071,-438.8078 31.6961,-876.6921 50.3392,-1315.029 -16.7459,-51.6512 -100.6136,-5.422 -147,-11.5349 -107.4481,10.7079 -214.2876,25.3653 -322,33 z m -464,1154 c 85.9171,-167.2787 175.0505,-332.7925 261.2,-500 22.7848,-211.4372 26.8132,-425.0145 41.8,-637 -120.0009,13.9317 -240.2211,21.7763 -360,35.99 -45.4866,40.3151 -23.0507,114.2039 -38,170.01 -24.1157,291.7577 -58.24868,582.7622 -80.98,874.49 57.0969,23.7894 117.9238,35.7817 175.98,56.51 z m 345,-313 c -63.8837,120.2323 -126.3114,241.0986 -189,362 139.0863,40.7763 275.5531,87.5851 414,130 -75.2424,-163.8002 -147.6682,-329.3113 -225,-492 z m -511,627 c 29.4055,-56.3511 58.7368,-112.5064 88,-169 -38.5528,-3.1289 -148.77713,-18.6732 -116.6,-28 -4.18175,61.9211 -15.48312,123.3732 -15.41,185.3 13.99115,6.5863 29.00253,8.879 44.01,11.7 z"
     id="Selection #2"
     inkscape:connector-curvature="0" />
</svg>
